<svg xmlns="http://www.w3.org/2000/svg" xmlns:xlink="http://www.w3.org/1999/xlink" width="1200" zoomAndPan="magnify" viewBox="0 0 900 299.999988" height="400" preserveAspectRatio="xMidYMid meet" version="1.0"><defs><g/></defs><g fill="#de7356" fill-opacity="1"><g transform="translate(51.885336, 134.267101)"><g><path d="M 3.0625 10.40625 L 15.03125 4.546875 C 17.226562 8.171875 21.050781 9.984375 26.5 9.984375 C 29.039062 9.984375 31.394531 9.171875 33.5625 7.546875 C 35.738281 5.929688 36.828125 3.441406 36.828125 0.078125 L 36.828125 -3.0625 C 34.242188 -0.195312 29.617188 1.234375 22.953125 1.234375 C 16.847656 1.234375 11.8125 -0.921875 7.84375 -5.234375 C 3.882812 -9.554688 1.90625 -14.851562 1.90625 -21.125 C 1.90625 -27.40625 3.882812 -32.71875 7.84375 -37.0625 C 11.8125 -41.414062 16.847656 -43.59375 22.953125 -43.59375 C 28.398438 -43.59375 32.941406 -41.914062 36.578125 -38.5625 L 36.828125 -38.5625 L 36.828125 -42.359375 L 51.453125 -42.359375 L 51.453125 1.15625 C 51.453125 8.039062 49.164062 13.351562 44.59375 17.09375 C 40.019531 20.832031 33.988281 22.703125 26.5 22.703125 C 14.394531 22.703125 6.582031 18.601562 3.0625 10.40625 Z M 20.265625 -28.3125 C 18.367188 -26.445312 17.421875 -24.054688 17.421875 -21.140625 C 17.421875 -18.222656 18.328125 -15.84375 20.140625 -14 C 21.960938 -12.15625 24.359375 -11.234375 27.328125 -11.234375 C 30.191406 -11.234375 32.546875 -12.164062 34.390625 -14.03125 C 36.234375 -15.90625 37.15625 -18.273438 37.15625 -21.140625 C 37.15625 -24.054688 36.207031 -26.445312 34.3125 -28.3125 C 32.414062 -30.1875 30.085938 -31.125 27.328125 -31.125 C 24.523438 -31.125 22.171875 -30.1875 20.265625 -28.3125 Z M 20.265625 -28.3125 "/></g></g></g><g fill="#de7356" fill-opacity="1"><g transform="translate(101.261644, 134.267101)"><g><path d="M 4.953125 0 L 4.953125 -42.359375 L 19.578125 -42.359375 L 19.578125 -36.25 L 19.734375 -36.25 C 19.847656 -36.46875 20.023438 -36.742188 20.265625 -37.078125 C 20.515625 -37.410156 21.050781 -37.988281 21.875 -38.8125 C 22.707031 -39.632812 23.585938 -40.375 24.515625 -41.03125 C 25.453125 -41.695312 26.664062 -42.289062 28.15625 -42.8125 C 29.644531 -43.332031 31.160156 -43.59375 32.703125 -43.59375 C 34.296875 -43.59375 35.863281 -43.375 37.40625 -42.9375 C 38.945312 -42.5 40.078125 -42.0625 40.796875 -41.625 L 41.953125 -40.953125 L 35.84375 -28.578125 C 34.019531 -30.117188 31.484375 -30.890625 28.234375 -30.890625 C 26.472656 -30.890625 24.957031 -30.503906 23.6875 -29.734375 C 22.425781 -28.960938 21.535156 -28.023438 21.015625 -26.921875 C 20.492188 -25.816406 20.125 -24.878906 19.90625 -24.109375 C 19.6875 -23.335938 19.578125 -22.734375 19.578125 -22.296875 L 19.578125 0 Z M 4.953125 0 "/></g></g></g><g fill="#de7356" fill-opacity="1"><g transform="translate(135.362425, 134.267101)"><g><path d="M 8.953125 -5.03125 C 4.253906 -9.21875 1.90625 -14.585938 1.90625 -21.140625 C 1.90625 -27.691406 4.351562 -33.070312 9.25 -37.28125 C 14.144531 -41.488281 20.203125 -43.59375 27.421875 -43.59375 C 34.515625 -43.59375 40.5 -41.472656 45.375 -37.234375 C 50.25 -33.003906 52.6875 -27.640625 52.6875 -21.140625 C 52.6875 -14.640625 50.304688 -9.285156 45.546875 -5.078125 C 40.785156 -0.867188 34.742188 1.234375 27.421875 1.234375 C 19.816406 1.234375 13.660156 -0.851562 8.953125 -5.03125 Z M 20.265625 -28.3125 C 18.367188 -26.445312 17.421875 -24.054688 17.421875 -21.140625 C 17.421875 -18.222656 18.328125 -15.84375 20.140625 -14 C 21.960938 -12.15625 24.359375 -11.234375 27.328125 -11.234375 C 30.191406 -11.234375 32.546875 -12.164062 34.390625 -14.03125 C 36.234375 -15.90625 37.15625 -18.273438 37.15625 -21.140625 C 37.15625 -24.054688 36.207031 -26.445312 34.3125 -28.3125 C 32.414062 -30.1875 30.085938 -31.125 27.328125 -31.125 C 24.523438 -31.125 22.171875 -30.1875 20.265625 -28.3125 Z M 20.265625 -28.3125 "/></g></g></g><g fill="#de7356" fill-opacity="1"><g transform="translate(182.922179, 134.267101)"><g><path d="M 18.75 -42.359375 L 18.75 -22.21875 C 18.75 -18.03125 19.378906 -15.054688 20.640625 -13.296875 C 21.910156 -11.535156 24.054688 -10.65625 27.078125 -10.65625 C 30.109375 -10.65625 32.253906 -11.535156 33.515625 -13.296875 C 34.785156 -15.054688 35.421875 -18.03125 35.421875 -22.21875 L 35.421875 -42.359375 L 50.046875 -42.359375 L 50.046875 -18.65625 C 50.046875 -11.613281 48.210938 -6.535156 44.546875 -3.421875 C 40.890625 -0.316406 35.066406 1.234375 27.078125 1.234375 C 19.097656 1.234375 13.273438 -0.316406 9.609375 -3.421875 C 5.953125 -6.535156 4.125 -11.613281 4.125 -18.65625 L 4.125 -42.359375 Z M 18.75 -42.359375 "/></g></g></g><g fill="#de7356" fill-opacity="1"><g transform="translate(230.069087, 134.267101)"><g><path d="M 48.546875 -37.109375 C 52.515625 -32.796875 54.5 -27.5 54.5 -21.21875 C 54.5 -14.945312 52.515625 -9.632812 48.546875 -5.28125 C 44.585938 -0.9375 39.550781 1.234375 33.4375 1.234375 C 27.820312 1.234375 23.203125 -0.523438 19.578125 -4.046875 L 19.578125 21.46875 L 4.953125 21.46875 L 4.953125 -42.359375 L 19.40625 -42.359375 L 19.40625 -37.578125 L 19.578125 -37.578125 C 23.203125 -41.585938 27.820312 -43.59375 33.4375 -43.59375 C 39.550781 -43.59375 44.585938 -41.429688 48.546875 -37.109375 Z M 36.125 -14.03125 C 38.03125 -15.90625 38.984375 -18.300781 38.984375 -21.21875 C 38.984375 -24.132812 38.070312 -26.515625 36.25 -28.359375 C 34.4375 -30.203125 32.039062 -31.125 29.0625 -31.125 C 26.207031 -31.125 23.851562 -30.1875 22 -28.3125 C 20.15625 -26.445312 19.234375 -24.082031 19.234375 -21.21875 C 19.234375 -18.300781 20.179688 -15.90625 22.078125 -14.03125 C 23.984375 -12.164062 26.3125 -11.234375 29.0625 -11.234375 C 31.875 -11.234375 34.226562 -12.164062 36.125 -14.03125 Z M 36.125 -14.03125 "/></g></g></g><g fill="#de7356" fill-opacity="1"><g transform="translate(279.445406, 134.267101)"><g><path d="M 47.8125 -19.15625 L 17.09375 -19.15625 C 17.09375 -16.1875 18.054688 -13.984375 19.984375 -12.546875 C 21.910156 -11.117188 24.003906 -10.40625 26.265625 -10.40625 C 28.628906 -10.40625 30.5 -10.71875 31.875 -11.34375 C 33.25 -11.976562 34.816406 -13.234375 36.578125 -15.109375 L 47.15625 -9.828125 C 42.75 -2.453125 35.425781 1.234375 25.1875 1.234375 C 18.800781 1.234375 13.320312 -0.953125 8.75 -5.328125 C 4.1875 -9.703125 1.90625 -14.972656 1.90625 -21.140625 C 1.90625 -27.304688 4.1875 -32.585938 8.75 -36.984375 C 13.320312 -41.390625 18.800781 -43.59375 25.1875 -43.59375 C 31.90625 -43.59375 37.367188 -41.648438 41.578125 -37.765625 C 45.785156 -33.890625 47.890625 -28.347656 47.890625 -21.140625 C 47.890625 -20.148438 47.863281 -19.488281 47.8125 -19.15625 Z M 17.5 -27.25 L 33.609375 -27.25 C 33.273438 -29.445312 32.40625 -31.140625 31 -32.328125 C 29.601562 -33.515625 27.800781 -34.109375 25.59375 -34.109375 C 23.175781 -34.109375 21.25 -33.472656 19.8125 -32.203125 C 18.382812 -30.941406 17.613281 -29.289062 17.5 -27.25 Z M 17.5 -27.25 "/></g></g></g><g fill="#de7356" fill-opacity="1"><g transform="translate(322.216071, 134.267101)"><g/></g></g><g fill="#de7356" fill-opacity="1"><g transform="translate(337.738538, 134.267101)"><g><path d="M 47.8125 -19.15625 L 17.09375 -19.15625 C 17.09375 -16.1875 18.054688 -13.984375 19.984375 -12.546875 C 21.910156 -11.117188 24.003906 -10.40625 26.265625 -10.40625 C 28.628906 -10.40625 30.5 -10.71875 31.875 -11.34375 C 33.25 -11.976562 34.816406 -13.234375 36.578125 -15.109375 L 47.15625 -9.828125 C 42.75 -2.453125 35.425781 1.234375 25.1875 1.234375 C 18.800781 1.234375 13.320312 -0.953125 8.75 -5.328125 C 4.1875 -9.703125 1.90625 -14.972656 1.90625 -21.140625 C 1.90625 -27.304688 4.1875 -32.585938 8.75 -36.984375 C 13.320312 -41.390625 18.800781 -43.59375 25.1875 -43.59375 C 31.90625 -43.59375 37.367188 -41.648438 41.578125 -37.765625 C 45.785156 -33.890625 47.890625 -28.347656 47.890625 -21.140625 C 47.890625 -20.148438 47.863281 -19.488281 47.8125 -19.15625 Z M 17.5 -27.25 L 33.609375 -27.25 C 33.273438 -29.445312 32.40625 -31.140625 31 -32.328125 C 29.601562 -33.515625 27.800781 -34.109375 25.59375 -34.109375 C 23.175781 -34.109375 21.25 -33.472656 19.8125 -32.203125 C 18.382812 -30.941406 17.613281 -29.289062 17.5 -27.25 Z M 17.5 -27.25 "/></g></g></g><g fill="#de7356" fill-opacity="1"><g transform="translate(380.509202, 134.267101)"><g><path d="M 7.4375 -42.359375 L 7.4375 -58.140625 L 22.046875 -58.140625 L 22.046875 -42.359375 L 30.96875 -42.359375 L 30.96875 -31.21875 L 22.046875 -31.21875 L 22.046875 -17.75 C 22.046875 -13.84375 23.144531 -11.890625 25.34375 -11.890625 C 25.894531 -11.890625 26.472656 -12 27.078125 -12.21875 C 27.691406 -12.4375 28.160156 -12.65625 28.484375 -12.875 L 28.984375 -13.21875 L 32.625 -1.40625 C 29.476562 0.351562 25.898438 1.234375 21.890625 1.234375 C 19.128906 1.234375 16.757812 0.753906 14.78125 -0.203125 C 12.800781 -1.171875 11.300781 -2.46875 10.28125 -4.09375 C 9.257812 -5.71875 8.53125 -7.421875 8.09375 -9.203125 C 7.65625 -10.992188 7.4375 -12.910156 7.4375 -14.953125 L 7.4375 -31.21875 L 1.328125 -31.21875 L 1.328125 -42.359375 Z M 7.4375 -42.359375 "/></g></g></g><g fill="#de7356" fill-opacity="1"><g transform="translate(406.105239, 134.267101)"><g/></g></g><g fill="#de7356" fill-opacity="1"><g transform="translate(421.627707, 134.267101)"><g><path d="M 7.84375 -5.234375 C 3.882812 -9.554688 1.90625 -14.851562 1.90625 -21.125 C 1.90625 -27.40625 3.882812 -32.71875 7.84375 -37.0625 C 11.8125 -41.414062 16.847656 -43.59375 22.953125 -43.59375 C 28.566406 -43.59375 33.191406 -41.832031 36.828125 -38.3125 L 36.828125 -71.015625 L 51.453125 -71.015625 L 51.453125 0 L 37 0 L 37 -4.796875 L 36.828125 -4.796875 C 33.191406 -0.773438 28.566406 1.234375 22.953125 1.234375 C 16.847656 1.234375 11.8125 -0.921875 7.84375 -5.234375 Z M 20.265625 -28.3125 C 18.367188 -26.445312 17.421875 -24.054688 17.421875 -21.140625 C 17.421875 -18.222656 18.328125 -15.84375 20.140625 -14 C 21.960938 -12.15625 24.359375 -11.234375 27.328125 -11.234375 C 30.191406 -11.234375 32.546875 -12.164062 34.390625 -14.03125 C 36.234375 -15.90625 37.15625 -18.273438 37.15625 -21.140625 C 37.15625 -24.054688 36.207031 -26.445312 34.3125 -28.3125 C 32.414062 -30.1875 30.085938 -31.125 27.328125 -31.125 C 24.523438 -31.125 22.171875 -30.1875 20.265625 -28.3125 Z M 20.265625 -28.3125 "/></g></g></g><g fill="#de7356" fill-opacity="1"><g transform="translate(471.004015, 134.267101)"><g><path d="M 20.0625 -54.828125 L 36.828125 -69.359375 L 44.34375 -59.875 L 24.6875 -48.46875 Z M 47.8125 -19.15625 L 17.09375 -19.15625 C 17.09375 -16.1875 18.054688 -13.984375 19.984375 -12.546875 C 21.910156 -11.117188 24.003906 -10.40625 26.265625 -10.40625 C 28.628906 -10.40625 30.5 -10.71875 31.875 -11.34375 C 33.25 -11.976562 34.816406 -13.234375 36.578125 -15.109375 L 47.15625 -9.828125 C 42.75 -2.453125 35.425781 1.234375 25.1875 1.234375 C 18.800781 1.234375 13.320312 -0.953125 8.75 -5.328125 C 4.1875 -9.703125 1.90625 -14.972656 1.90625 -21.140625 C 1.90625 -27.304688 4.1875 -32.585938 8.75 -36.984375 C 13.320312 -41.390625 18.800781 -43.59375 25.1875 -43.59375 C 31.90625 -43.59375 37.367188 -41.648438 41.578125 -37.765625 C 45.785156 -33.890625 47.890625 -28.347656 47.890625 -21.140625 C 47.890625 -20.148438 47.863281 -19.488281 47.8125 -19.15625 Z M 17.5 -27.25 L 33.609375 -27.25 C 33.273438 -29.445312 32.40625 -31.140625 31 -32.328125 C 29.601562 -33.515625 27.800781 -34.109375 25.59375 -34.109375 C 23.175781 -34.109375 21.25 -33.472656 19.8125 -32.203125 C 18.382812 -30.941406 17.613281 -29.289062 17.5 -27.25 Z M 17.5 -27.25 "/></g></g></g><g fill="#de7356" fill-opacity="1"><g transform="translate(513.774702, 134.267101)"><g><path d="M 27.5 -31.625 C 24.75 -31.625 22.378906 -30.601562 20.390625 -28.5625 C 18.410156 -26.53125 17.421875 -24.082031 17.421875 -21.21875 C 17.421875 -18.300781 18.410156 -15.820312 20.390625 -13.78125 C 22.378906 -11.75 24.75 -10.734375 27.5 -10.734375 C 28.820312 -10.734375 30.070312 -10.894531 31.25 -11.21875 C 32.4375 -11.550781 33.304688 -11.882812 33.859375 -12.21875 L 34.59375 -12.71875 L 39.5625 -2.5625 C 39.175781 -2.28125 38.632812 -1.929688 37.9375 -1.515625 C 37.25 -1.109375 35.679688 -0.550781 33.234375 0.15625 C 30.785156 0.875 28.15625 1.234375 25.34375 1.234375 C 19.125 1.234375 13.660156 -0.953125 8.953125 -5.328125 C 4.253906 -9.703125 1.90625 -14.945312 1.90625 -21.0625 C 1.90625 -27.226562 4.253906 -32.523438 8.953125 -36.953125 C 13.660156 -41.378906 19.125 -43.59375 25.34375 -43.59375 C 28.15625 -43.59375 30.742188 -43.265625 33.109375 -42.609375 C 35.484375 -41.953125 37.164062 -41.289062 38.15625 -40.625 L 39.5625 -39.640625 L 34.59375 -29.640625 C 32.78125 -30.960938 30.414062 -31.625 27.5 -31.625 Z M 27.5 -31.625 "/></g></g></g><g fill="#de7356" fill-opacity="1"><g transform="translate(547.297466, 134.267101)"><g><path d="M 8.953125 -5.03125 C 4.253906 -9.21875 1.90625 -14.585938 1.90625 -21.140625 C 1.90625 -27.691406 4.351562 -33.070312 9.25 -37.28125 C 14.144531 -41.488281 20.203125 -43.59375 27.421875 -43.59375 C 34.515625 -43.59375 40.5 -41.472656 45.375 -37.234375 C 50.25 -33.003906 52.6875 -27.640625 52.6875 -21.140625 C 52.6875 -14.640625 50.304688 -9.285156 45.546875 -5.078125 C 40.785156 -0.867188 34.742188 1.234375 27.421875 1.234375 C 19.816406 1.234375 13.660156 -0.851562 8.953125 -5.03125 Z M 20.265625 -28.3125 C 18.367188 -26.445312 17.421875 -24.054688 17.421875 -21.140625 C 17.421875 -18.222656 18.328125 -15.84375 20.140625 -14 C 21.960938 -12.15625 24.359375 -11.234375 27.328125 -11.234375 C 30.191406 -11.234375 32.546875 -12.164062 34.390625 -14.03125 C 36.234375 -15.90625 37.15625 -18.273438 37.15625 -21.140625 C 37.15625 -24.054688 36.207031 -26.445312 34.3125 -28.3125 C 32.414062 -30.1875 30.085938 -31.125 27.328125 -31.125 C 24.523438 -31.125 22.171875 -30.1875 20.265625 -28.3125 Z M 20.265625 -28.3125 "/></g></g></g><g fill="#de7356" fill-opacity="1"><g transform="translate(594.85723, 134.267101)"><g><path d="M 18.75 -42.359375 L 18.75 -22.21875 C 18.75 -18.03125 19.378906 -15.054688 20.640625 -13.296875 C 21.910156 -11.535156 24.054688 -10.65625 27.078125 -10.65625 C 30.109375 -10.65625 32.253906 -11.535156 33.515625 -13.296875 C 34.785156 -15.054688 35.421875 -18.03125 35.421875 -22.21875 L 35.421875 -42.359375 L 50.046875 -42.359375 L 50.046875 -18.65625 C 50.046875 -11.613281 48.210938 -6.535156 44.546875 -3.421875 C 40.890625 -0.316406 35.066406 1.234375 27.078125 1.234375 C 19.097656 1.234375 13.273438 -0.316406 9.609375 -3.421875 C 5.953125 -6.535156 4.125 -11.613281 4.125 -18.65625 L 4.125 -42.359375 Z M 18.75 -42.359375 "/></g></g></g><g fill="#de7356" fill-opacity="1"><g transform="translate(642.004138, 134.267101)"><g><path d="M 15.6875 -42.359375 L 26.015625 -19.328125 L 36.328125 -42.359375 L 53.671875 -42.359375 L 30.96875 0 L 21.0625 0 L -1.65625 -42.359375 Z M 15.6875 -42.359375 "/></g></g></g><g fill="#de7356" fill-opacity="1"><g transform="translate(687.004226, 134.267101)"><g><path d="M 47.8125 -19.15625 L 17.09375 -19.15625 C 17.09375 -16.1875 18.054688 -13.984375 19.984375 -12.546875 C 21.910156 -11.117188 24.003906 -10.40625 26.265625 -10.40625 C 28.628906 -10.40625 30.5 -10.71875 31.875 -11.34375 C 33.25 -11.976562 34.816406 -13.234375 36.578125 -15.109375 L 47.15625 -9.828125 C 42.75 -2.453125 35.425781 1.234375 25.1875 1.234375 C 18.800781 1.234375 13.320312 -0.953125 8.75 -5.328125 C 4.1875 -9.703125 1.90625 -14.972656 1.90625 -21.140625 C 1.90625 -27.304688 4.1875 -32.585938 8.75 -36.984375 C 13.320312 -41.390625 18.800781 -43.59375 25.1875 -43.59375 C 31.90625 -43.59375 37.367188 -41.648438 41.578125 -37.765625 C 45.785156 -33.890625 47.890625 -28.347656 47.890625 -21.140625 C 47.890625 -20.148438 47.863281 -19.488281 47.8125 -19.15625 Z M 17.5 -27.25 L 33.609375 -27.25 C 33.273438 -29.445312 32.40625 -31.140625 31 -32.328125 C 29.601562 -33.515625 27.800781 -34.109375 25.59375 -34.109375 C 23.175781 -34.109375 21.25 -33.472656 19.8125 -32.203125 C 18.382812 -30.941406 17.613281 -29.289062 17.5 -27.25 Z M 17.5 -27.25 "/></g></g></g><g fill="#de7356" fill-opacity="1"><g transform="translate(729.774868, 134.267101)"><g><path d="M 4.953125 0 L 4.953125 -42.359375 L 19.578125 -42.359375 L 19.578125 -36.25 L 19.734375 -36.25 C 19.847656 -36.46875 20.023438 -36.742188 20.265625 -37.078125 C 20.515625 -37.410156 21.050781 -37.988281 21.875 -38.8125 C 22.707031 -39.632812 23.585938 -40.375 24.515625 -41.03125 C 25.453125 -41.695312 26.664062 -42.289062 28.15625 -42.8125 C 29.644531 -43.332031 31.160156 -43.59375 32.703125 -43.59375 C 34.296875 -43.59375 35.863281 -43.375 37.40625 -42.9375 C 38.945312 -42.5 40.078125 -42.0625 40.796875 -41.625 L 41.953125 -40.953125 L 35.84375 -28.578125 C 34.019531 -30.117188 31.484375 -30.890625 28.234375 -30.890625 C 26.472656 -30.890625 24.957031 -30.503906 23.6875 -29.734375 C 22.425781 -28.960938 21.535156 -28.023438 21.015625 -26.921875 C 20.492188 -25.816406 20.125 -24.878906 19.90625 -24.109375 C 19.6875 -23.335938 19.578125 -22.734375 19.578125 -22.296875 L 19.578125 0 Z M 4.953125 0 "/></g></g></g><g fill="#de7356" fill-opacity="1"><g transform="translate(763.875695, 134.267101)"><g><path d="M 7.4375 -42.359375 L 7.4375 -58.140625 L 22.046875 -58.140625 L 22.046875 -42.359375 L 30.96875 -42.359375 L 30.96875 -31.21875 L 22.046875 -31.21875 L 22.046875 -17.75 C 22.046875 -13.84375 23.144531 -11.890625 25.34375 -11.890625 C 25.894531 -11.890625 26.472656 -12 27.078125 -12.21875 C 27.691406 -12.4375 28.160156 -12.65625 28.484375 -12.875 L 28.984375 -13.21875 L 32.625 -1.40625 C 29.476562 0.351562 25.898438 1.234375 21.890625 1.234375 C 19.128906 1.234375 16.757812 0.753906 14.78125 -0.203125 C 12.800781 -1.171875 11.300781 -2.46875 10.28125 -4.09375 C 9.257812 -5.71875 8.53125 -7.421875 8.09375 -9.203125 C 7.65625 -10.992188 7.4375 -12.910156 7.4375 -14.953125 L 7.4375 -31.21875 L 1.328125 -31.21875 L 1.328125 -42.359375 Z M 7.4375 -42.359375 "/></g></g></g><g fill="#de7356" fill-opacity="1"><g transform="translate(789.471732, 134.267101)"><g><path d="M 47.8125 -19.15625 L 17.09375 -19.15625 C 17.09375 -16.1875 18.054688 -13.984375 19.984375 -12.546875 C 21.910156 -11.117188 24.003906 -10.40625 26.265625 -10.40625 C 28.628906 -10.40625 30.5 -10.71875 31.875 -11.34375 C 33.25 -11.976562 34.816406 -13.234375 36.578125 -15.109375 L 47.15625 -9.828125 C 42.75 -2.453125 35.425781 1.234375 25.1875 1.234375 C 18.800781 1.234375 13.320312 -0.953125 8.75 -5.328125 C 4.1875 -9.703125 1.90625 -14.972656 1.90625 -21.140625 C 1.90625 -27.304688 4.1875 -32.585938 8.75 -36.984375 C 13.320312 -41.390625 18.800781 -43.59375 25.1875 -43.59375 C 31.90625 -43.59375 37.367188 -41.648438 41.578125 -37.765625 C 45.785156 -33.890625 47.890625 -28.347656 47.890625 -21.140625 C 47.890625 -20.148438 47.863281 -19.488281 47.8125 -19.15625 Z M 17.5 -27.25 L 33.609375 -27.25 C 33.273438 -29.445312 32.40625 -31.140625 31 -32.328125 C 29.601562 -33.515625 27.800781 -34.109375 25.59375 -34.109375 C 23.175781 -34.109375 21.25 -33.472656 19.8125 -32.203125 C 18.382812 -30.941406 17.613281 -29.289062 17.5 -27.25 Z M 17.5 -27.25 "/></g></g></g><g fill="#2a383f" fill-opacity="1"><g transform="translate(363.272507, 186.047723)"><g><path d="M 5.984375 -20.734375 C 7.617188 -20.734375 8.835938 -20.296875 9.640625 -19.421875 C 10.441406 -18.554688 10.84375 -17.285156 10.84375 -15.609375 L 10.84375 -12.90625 C 10.84375 -11.226562 10.441406 -9.953125 9.640625 -9.078125 C 8.835938 -8.210938 7.617188 -7.78125 5.984375 -7.78125 L 4.4375 -7.78125 L 4.4375 0 L 1.1875 0 L 1.1875 -20.734375 Z M 4.4375 -17.765625 L 4.4375 -10.75 L 5.984375 -10.75 C 6.492188 -10.75 6.882812 -10.882812 7.15625 -11.15625 C 7.4375 -11.4375 7.578125 -11.953125 7.578125 -12.703125 L 7.578125 -15.8125 C 7.578125 -16.5625 7.4375 -17.070312 7.15625 -17.34375 C 6.882812 -17.625 6.492188 -17.765625 5.984375 -17.765625 Z M 4.4375 -17.765625 "/></g></g></g><g fill="#2a383f" fill-opacity="1"><g transform="translate(377.393714, 186.047723)"><g><path d="M 11.71875 0 L 8.4375 0 L 7.875 -3.765625 L 3.875 -3.765625 L 3.3125 0 L 0.328125 0 L 3.640625 -20.734375 L 8.40625 -20.734375 Z M 4.296875 -6.578125 L 7.4375 -6.578125 L 5.859375 -17.0625 Z M 4.296875 -6.578125 "/></g></g></g><g fill="#2a383f" fill-opacity="1"><g transform="translate(392.40296, 186.047723)"><g><path d="M 8 0 C 7.957031 -0.132812 7.914062 -0.257812 7.875 -0.375 C 7.832031 -0.5 7.796875 -0.648438 7.765625 -0.828125 C 7.742188 -1.003906 7.726562 -1.226562 7.71875 -1.5 C 7.707031 -1.78125 7.703125 -2.128906 7.703125 -2.546875 L 7.703125 -5.796875 C 7.703125 -6.765625 7.53125 -7.445312 7.1875 -7.84375 C 6.851562 -8.238281 6.3125 -8.4375 5.5625 -8.4375 L 4.4375 -8.4375 L 4.4375 0 L 1.1875 0 L 1.1875 -20.734375 L 6.09375 -20.734375 C 7.789062 -20.734375 9.019531 -20.335938 9.78125 -19.546875 C 10.539062 -18.753906 10.921875 -17.554688 10.921875 -15.953125 L 10.921875 -14.328125 C 10.921875 -12.203125 10.210938 -10.800781 8.796875 -10.125 C 9.617188 -9.789062 10.179688 -9.242188 10.484375 -8.484375 C 10.796875 -7.722656 10.953125 -6.800781 10.953125 -5.71875 L 10.953125 -2.515625 C 10.953125 -2.003906 10.972656 -1.554688 11.015625 -1.171875 C 11.054688 -0.785156 11.15625 -0.394531 11.3125 0 Z M 4.4375 -17.765625 L 4.4375 -11.40625 L 5.71875 -11.40625 C 6.320312 -11.40625 6.796875 -11.5625 7.140625 -11.875 C 7.492188 -12.1875 7.671875 -12.757812 7.671875 -13.59375 L 7.671875 -15.640625 C 7.671875 -16.390625 7.535156 -16.929688 7.265625 -17.265625 C 7.003906 -17.597656 6.585938 -17.765625 6.015625 -17.765625 Z M 4.4375 -17.765625 "/></g></g></g><g fill="#2a383f" fill-opacity="1"><g transform="translate(407.264199, 186.047723)"><g><path d="M 10.625 -7.734375 L 10.625 -4.96875 C 10.625 -3.289062 10.210938 -2.003906 9.390625 -1.109375 C 8.578125 -0.210938 7.375 0.234375 5.78125 0.234375 C 4.175781 0.234375 2.960938 -0.210938 2.140625 -1.109375 C 1.328125 -2.003906 0.921875 -3.289062 0.921875 -4.96875 L 0.921875 -15.75 C 0.921875 -17.425781 1.328125 -18.710938 2.140625 -19.609375 C 2.960938 -20.515625 4.175781 -20.96875 5.78125 -20.96875 C 7.375 -20.96875 8.578125 -20.515625 9.390625 -19.609375 C 10.210938 -18.710938 10.625 -17.425781 10.625 -15.75 L 10.625 -13.734375 L 7.546875 -13.734375 L 7.546875 -15.953125 C 7.546875 -16.703125 7.390625 -17.226562 7.078125 -17.53125 C 6.773438 -17.84375 6.367188 -18 5.859375 -18 C 5.347656 -18 4.9375 -17.84375 4.625 -17.53125 C 4.320312 -17.226562 4.171875 -16.703125 4.171875 -15.953125 L 4.171875 -4.765625 C 4.171875 -4.015625 4.320312 -3.488281 4.625 -3.1875 C 4.9375 -2.894531 5.347656 -2.75 5.859375 -2.75 C 6.367188 -2.75 6.773438 -2.894531 7.078125 -3.1875 C 7.390625 -3.488281 7.546875 -4.015625 7.546875 -4.765625 L 7.546875 -7.734375 Z M 10.625 -7.734375 "/></g></g></g><g fill="#2a383f" fill-opacity="1"><g transform="translate(421.651813, 186.047723)"><g><path d="M 4.4375 -11.984375 L 8.90625 -11.984375 L 8.90625 -9.03125 L 4.4375 -9.03125 L 4.4375 -2.96875 L 10.0625 -2.96875 L 10.0625 0 L 1.1875 0 L 1.1875 -20.734375 L 10.0625 -20.734375 L 10.0625 -17.765625 L 4.4375 -17.765625 Z M 4.4375 -11.984375 "/></g></g></g><g fill="#2a383f" fill-opacity="1"><g transform="translate(435.506601, 186.047723)"><g><path d="M 0.921875 -15.75 C 0.921875 -17.425781 1.34375 -18.710938 2.1875 -19.609375 C 3.039062 -20.515625 4.265625 -20.96875 5.859375 -20.96875 C 7.460938 -20.96875 8.6875 -20.515625 9.53125 -19.609375 C 10.382812 -18.710938 10.8125 -17.425781 10.8125 -15.75 L 10.8125 -4.96875 C 10.8125 -3.8125 10.601562 -2.847656 10.1875 -2.078125 C 10.257812 -1.878906 10.359375 -1.753906 10.484375 -1.703125 C 10.617188 -1.648438 10.828125 -1.625 11.109375 -1.625 L 11.40625 -1.625 L 11.40625 1.265625 L 10.953125 1.265625 C 10.222656 1.265625 9.625 1.140625 9.15625 0.890625 C 8.695312 0.648438 8.359375 0.304688 8.140625 -0.140625 C 7.804688 -0.0234375 7.453125 0.0625 7.078125 0.125 C 6.703125 0.195312 6.296875 0.234375 5.859375 0.234375 C 4.265625 0.234375 3.039062 -0.210938 2.1875 -1.109375 C 1.34375 -2.003906 0.921875 -3.289062 0.921875 -4.96875 Z M 4.171875 -4.765625 C 4.171875 -4.015625 4.320312 -3.484375 4.625 -3.171875 C 4.9375 -2.867188 5.347656 -2.71875 5.859375 -2.71875 C 6.367188 -2.71875 6.773438 -2.867188 7.078125 -3.171875 C 7.390625 -3.484375 7.546875 -4.015625 7.546875 -4.765625 L 7.546875 -15.953125 C 7.546875 -16.703125 7.390625 -17.226562 7.078125 -17.53125 C 6.773438 -17.84375 6.367188 -18 5.859375 -18 C 5.347656 -18 4.9375 -17.84375 4.625 -17.53125 C 4.320312 -17.226562 4.171875 -16.703125 4.171875 -15.953125 Z M 4.171875 -4.765625 "/></g></g></g><g fill="#2a383f" fill-opacity="1"><g transform="translate(450.19024, 186.047723)"><g><path d="M 4.296875 -20.734375 L 4.296875 -4.734375 C 4.296875 -3.984375 4.445312 -3.457031 4.75 -3.15625 C 5.0625 -2.863281 5.472656 -2.71875 5.984375 -2.71875 C 6.492188 -2.71875 6.898438 -2.863281 7.203125 -3.15625 C 7.515625 -3.457031 7.671875 -3.984375 7.671875 -4.734375 L 7.671875 -20.734375 L 10.75 -20.734375 L 10.75 -4.9375 C 10.75 -3.257812 10.335938 -1.972656 9.515625 -1.078125 C 8.703125 -0.179688 7.492188 0.265625 5.890625 0.265625 C 4.296875 0.265625 3.085938 -0.179688 2.265625 -1.078125 C 1.441406 -1.972656 1.03125 -3.257812 1.03125 -4.9375 L 1.03125 -20.734375 Z M 4.296875 -20.734375 "/></g></g></g><g fill="#2a383f" fill-opacity="1"><g transform="translate(464.933078, 186.047723)"><g><path d="M 4.4375 -11.984375 L 8.90625 -11.984375 L 8.90625 -9.03125 L 4.4375 -9.03125 L 4.4375 -2.96875 L 10.0625 -2.96875 L 10.0625 0 L 1.1875 0 L 1.1875 -20.734375 L 10.0625 -20.734375 L 10.0625 -17.765625 L 4.4375 -17.765625 Z M 4.4375 -11.984375 "/></g></g></g><g fill="#2a383f" fill-opacity="1"><g transform="translate(478.787867, 186.047723)"><g/></g></g><g fill="#2a383f" fill-opacity="1"><g transform="translate(486.337522, 186.047723)"><g><path d="M 10.625 -7.734375 L 10.625 -4.96875 C 10.625 -3.289062 10.210938 -2.003906 9.390625 -1.109375 C 8.578125 -0.210938 7.375 0.234375 5.78125 0.234375 C 4.175781 0.234375 2.960938 -0.210938 2.140625 -1.109375 C 1.328125 -2.003906 0.921875 -3.289062 0.921875 -4.96875 L 0.921875 -15.75 C 0.921875 -17.425781 1.328125 -18.710938 2.140625 -19.609375 C 2.960938 -20.515625 4.175781 -20.96875 5.78125 -20.96875 C 7.375 -20.96875 8.578125 -20.515625 9.390625 -19.609375 C 10.210938 -18.710938 10.625 -17.425781 10.625 -15.75 L 10.625 -13.734375 L 7.546875 -13.734375 L 7.546875 -15.953125 C 7.546875 -16.703125 7.390625 -17.226562 7.078125 -17.53125 C 6.773438 -17.84375 6.367188 -18 5.859375 -18 C 5.347656 -18 4.9375 -17.84375 4.625 -17.53125 C 4.320312 -17.226562 4.171875 -16.703125 4.171875 -15.953125 L 4.171875 -4.765625 C 4.171875 -4.015625 4.320312 -3.488281 4.625 -3.1875 C 4.9375 -2.894531 5.347656 -2.75 5.859375 -2.75 C 6.367188 -2.75 6.773438 -2.894531 7.078125 -3.1875 C 7.390625 -3.488281 7.546875 -4.015625 7.546875 -4.765625 L 7.546875 -7.734375 Z M 10.625 -7.734375 "/></g></g></g><g fill="#2a383f" fill-opacity="1"><g transform="translate(500.725136, 186.047723)"><g><path d="M 4.4375 -11.984375 L 8.90625 -11.984375 L 8.90625 -9.03125 L 4.4375 -9.03125 L 4.4375 -2.96875 L 10.0625 -2.96875 L 10.0625 0 L 1.1875 0 L 1.1875 -20.734375 L 10.0625 -20.734375 L 10.0625 -17.765625 L 4.4375 -17.765625 Z M 4.4375 -11.984375 "/></g></g></g><g fill="#2a383f" fill-opacity="1"><g transform="translate(514.579925, 186.047723)"><g/></g></g><g fill="#2a383f" fill-opacity="1"><g transform="translate(522.12958, 186.047723)"><g><path d="M 0.765625 -15.75 C 0.765625 -17.425781 1.164062 -18.710938 1.96875 -19.609375 C 2.769531 -20.515625 3.96875 -20.96875 5.5625 -20.96875 C 7.164062 -20.96875 8.363281 -20.515625 9.15625 -19.609375 C 9.957031 -18.710938 10.359375 -17.425781 10.359375 -15.75 L 10.359375 -14.953125 L 7.28125 -14.953125 L 7.28125 -15.953125 C 7.28125 -16.703125 7.132812 -17.226562 6.84375 -17.53125 C 6.5625 -17.84375 6.164062 -18 5.65625 -18 C 5.144531 -18 4.742188 -17.84375 4.453125 -17.53125 C 4.171875 -17.226562 4.03125 -16.703125 4.03125 -15.953125 C 4.03125 -15.242188 4.1875 -14.617188 4.5 -14.078125 C 4.8125 -13.535156 5.203125 -13.019531 5.671875 -12.53125 C 6.148438 -12.050781 6.660156 -11.566406 7.203125 -11.078125 C 7.753906 -10.597656 8.265625 -10.070312 8.734375 -9.5 C 9.210938 -8.925781 9.609375 -8.273438 9.921875 -7.546875 C 10.234375 -6.816406 10.390625 -5.957031 10.390625 -4.96875 C 10.390625 -3.289062 9.976562 -2.003906 9.15625 -1.109375 C 8.34375 -0.210938 7.132812 0.234375 5.53125 0.234375 C 3.9375 0.234375 2.726562 -0.210938 1.90625 -1.109375 C 1.09375 -2.003906 0.6875 -3.289062 0.6875 -4.96875 L 0.6875 -6.390625 L 3.765625 -6.390625 L 3.765625 -4.765625 C 3.765625 -4.015625 3.914062 -3.488281 4.21875 -3.1875 C 4.519531 -2.894531 4.929688 -2.75 5.453125 -2.75 C 5.960938 -2.75 6.367188 -2.894531 6.671875 -3.1875 C 6.984375 -3.488281 7.140625 -4.015625 7.140625 -4.765625 C 7.140625 -5.472656 6.976562 -6.097656 6.65625 -6.640625 C 6.34375 -7.191406 5.945312 -7.707031 5.46875 -8.1875 C 5 -8.664062 4.492188 -9.144531 3.953125 -9.625 C 3.410156 -10.113281 2.898438 -10.644531 2.421875 -11.21875 C 1.953125 -11.789062 1.554688 -12.441406 1.234375 -13.171875 C 0.921875 -13.898438 0.765625 -14.757812 0.765625 -15.75 Z M 0.765625 -15.75 "/></g></g></g><g fill="#2a383f" fill-opacity="1"><g transform="translate(536.161981, 186.047723)"><g><path d="M 4.171875 -4.765625 C 4.171875 -4.015625 4.320312 -3.484375 4.625 -3.171875 C 4.9375 -2.867188 5.347656 -2.71875 5.859375 -2.71875 C 6.367188 -2.71875 6.773438 -2.867188 7.078125 -3.171875 C 7.390625 -3.484375 7.546875 -4.015625 7.546875 -4.765625 L 7.546875 -15.953125 C 7.546875 -16.703125 7.390625 -17.226562 7.078125 -17.53125 C 6.773438 -17.84375 6.367188 -18 5.859375 -18 C 5.347656 -18 4.9375 -17.84375 4.625 -17.53125 C 4.320312 -17.226562 4.171875 -16.703125 4.171875 -15.953125 Z M 0.921875 -15.75 C 0.921875 -17.425781 1.34375 -18.710938 2.1875 -19.609375 C 3.039062 -20.515625 4.265625 -20.96875 5.859375 -20.96875 C 7.460938 -20.96875 8.6875 -20.515625 9.53125 -19.609375 C 10.382812 -18.710938 10.8125 -17.425781 10.8125 -15.75 L 10.8125 -4.96875 C 10.8125 -3.289062 10.382812 -2.003906 9.53125 -1.109375 C 8.6875 -0.210938 7.460938 0.234375 5.859375 0.234375 C 4.265625 0.234375 3.039062 -0.210938 2.1875 -1.109375 C 1.34375 -2.003906 0.921875 -3.289062 0.921875 -4.96875 Z M 0.921875 -15.75 "/></g></g></g><g fill="#2a383f" fill-opacity="1"><g transform="translate(550.845619, 186.047723)"><g><path d="M 4.09375 -15.015625 L 4.09375 0 L 1.15625 0 L 1.15625 -20.734375 L 5.234375 -20.734375 L 8.59375 -8.3125 L 8.59375 -20.734375 L 11.484375 -20.734375 L 11.484375 0 L 8.140625 0 Z M 4.09375 -15.015625 "/></g></g></g><g fill="#2a383f" fill-opacity="1"><g transform="translate(566.446913, 186.047723)"><g><path d="M 0.296875 -20.734375 L 10.359375 -20.734375 L 10.359375 -17.765625 L 6.953125 -17.765625 L 6.953125 0 L 3.703125 0 L 3.703125 -17.765625 L 0.296875 -17.765625 Z M 0.296875 -20.734375 "/></g></g></g><g fill="#2a383f" fill-opacity="1"><g transform="translate(580.064878, 186.047723)"><g/></g></g><g fill="#2a383f" fill-opacity="1"><g transform="translate(587.614545, 186.047723)"><g><path d="M 5.984375 -20.734375 C 7.617188 -20.734375 8.835938 -20.296875 9.640625 -19.421875 C 10.441406 -18.554688 10.84375 -17.285156 10.84375 -15.609375 L 10.84375 -12.90625 C 10.84375 -11.226562 10.441406 -9.953125 9.640625 -9.078125 C 8.835938 -8.210938 7.617188 -7.78125 5.984375 -7.78125 L 4.4375 -7.78125 L 4.4375 0 L 1.1875 0 L 1.1875 -20.734375 Z M 4.4375 -17.765625 L 4.4375 -10.75 L 5.984375 -10.75 C 6.492188 -10.75 6.882812 -10.882812 7.15625 -11.15625 C 7.4375 -11.4375 7.578125 -11.953125 7.578125 -12.703125 L 7.578125 -15.8125 C 7.578125 -16.5625 7.4375 -17.070312 7.15625 -17.34375 C 6.882812 -17.625 6.492188 -17.765625 5.984375 -17.765625 Z M 4.4375 -17.765625 "/></g></g></g><g fill="#2a383f" fill-opacity="1"><g transform="translate(601.735729, 186.047723)"><g><path d="M 1.1875 -20.734375 L 4.4375 -20.734375 L 4.4375 -2.96875 L 9.796875 -2.96875 L 9.796875 0 L 1.1875 0 Z M 1.1875 -20.734375 "/></g></g></g><g fill="#2a383f" fill-opacity="1"><g transform="translate(614.791285, 186.047723)"><g><path d="M 4.296875 -20.734375 L 4.296875 -4.734375 C 4.296875 -3.984375 4.445312 -3.457031 4.75 -3.15625 C 5.0625 -2.863281 5.472656 -2.71875 5.984375 -2.71875 C 6.492188 -2.71875 6.898438 -2.863281 7.203125 -3.15625 C 7.515625 -3.457031 7.671875 -3.984375 7.671875 -4.734375 L 7.671875 -20.734375 L 10.75 -20.734375 L 10.75 -4.9375 C 10.75 -3.257812 10.335938 -1.972656 9.515625 -1.078125 C 8.703125 -0.179688 7.492188 0.265625 5.890625 0.265625 C 4.296875 0.265625 3.085938 -0.179688 2.265625 -1.078125 C 1.441406 -1.972656 1.03125 -3.257812 1.03125 -4.9375 L 1.03125 -20.734375 Z M 4.296875 -20.734375 "/></g></g></g><g fill="#2a383f" fill-opacity="1"><g transform="translate(629.534112, 186.047723)"><g><path d="M 0.765625 -15.75 C 0.765625 -17.425781 1.164062 -18.710938 1.96875 -19.609375 C 2.769531 -20.515625 3.96875 -20.96875 5.5625 -20.96875 C 7.164062 -20.96875 8.363281 -20.515625 9.15625 -19.609375 C 9.957031 -18.710938 10.359375 -17.425781 10.359375 -15.75 L 10.359375 -14.953125 L 7.28125 -14.953125 L 7.28125 -15.953125 C 7.28125 -16.703125 7.132812 -17.226562 6.84375 -17.53125 C 6.5625 -17.84375 6.164062 -18 5.65625 -18 C 5.144531 -18 4.742188 -17.84375 4.453125 -17.53125 C 4.171875 -17.226562 4.03125 -16.703125 4.03125 -15.953125 C 4.03125 -15.242188 4.1875 -14.617188 4.5 -14.078125 C 4.8125 -13.535156 5.203125 -13.019531 5.671875 -12.53125 C 6.148438 -12.050781 6.660156 -11.566406 7.203125 -11.078125 C 7.753906 -10.597656 8.265625 -10.070312 8.734375 -9.5 C 9.210938 -8.925781 9.609375 -8.273438 9.921875 -7.546875 C 10.234375 -6.816406 10.390625 -5.957031 10.390625 -4.96875 C 10.390625 -3.289062 9.976562 -2.003906 9.15625 -1.109375 C 8.34375 -0.210938 7.132812 0.234375 5.53125 0.234375 C 3.9375 0.234375 2.726562 -0.210938 1.90625 -1.109375 C 1.09375 -2.003906 0.6875 -3.289062 0.6875 -4.96875 L 0.6875 -6.390625 L 3.765625 -6.390625 L 3.765625 -4.765625 C 3.765625 -4.015625 3.914062 -3.488281 4.21875 -3.1875 C 4.519531 -2.894531 4.929688 -2.75 5.453125 -2.75 C 5.960938 -2.75 6.367188 -2.894531 6.671875 -3.1875 C 6.984375 -3.488281 7.140625 -4.015625 7.140625 -4.765625 C 7.140625 -5.472656 6.976562 -6.097656 6.65625 -6.640625 C 6.34375 -7.191406 5.945312 -7.707031 5.46875 -8.1875 C 5 -8.664062 4.492188 -9.144531 3.953125 -9.625 C 3.410156 -10.113281 2.898438 -10.644531 2.421875 -11.21875 C 1.953125 -11.789062 1.554688 -12.441406 1.234375 -13.171875 C 0.921875 -13.898438 0.765625 -14.757812 0.765625 -15.75 Z M 0.765625 -15.75 "/></g></g></g><g fill="#2a383f" fill-opacity="1"><g transform="translate(643.566536, 186.047723)"><g/></g></g><g fill="#2a383f" fill-opacity="1"><g transform="translate(651.11618, 186.047723)"><g><path d="M 0.921875 -15.75 C 0.921875 -17.425781 1.34375 -18.710938 2.1875 -19.609375 C 3.039062 -20.515625 4.265625 -20.96875 5.859375 -20.96875 C 7.460938 -20.96875 8.6875 -20.515625 9.53125 -19.609375 C 10.382812 -18.710938 10.8125 -17.425781 10.8125 -15.75 L 10.8125 -4.96875 C 10.8125 -3.8125 10.601562 -2.847656 10.1875 -2.078125 C 10.257812 -1.878906 10.359375 -1.753906 10.484375 -1.703125 C 10.617188 -1.648438 10.828125 -1.625 11.109375 -1.625 L 11.40625 -1.625 L 11.40625 1.265625 L 10.953125 1.265625 C 10.222656 1.265625 9.625 1.140625 9.15625 0.890625 C 8.695312 0.648438 8.359375 0.304688 8.140625 -0.140625 C 7.804688 -0.0234375 7.453125 0.0625 7.078125 0.125 C 6.703125 0.195312 6.296875 0.234375 5.859375 0.234375 C 4.265625 0.234375 3.039062 -0.210938 2.1875 -1.109375 C 1.34375 -2.003906 0.921875 -3.289062 0.921875 -4.96875 Z M 4.171875 -4.765625 C 4.171875 -4.015625 4.320312 -3.484375 4.625 -3.171875 C 4.9375 -2.867188 5.347656 -2.71875 5.859375 -2.71875 C 6.367188 -2.71875 6.773438 -2.867188 7.078125 -3.171875 C 7.390625 -3.484375 7.546875 -4.015625 7.546875 -4.765625 L 7.546875 -15.953125 C 7.546875 -16.703125 7.390625 -17.226562 7.078125 -17.53125 C 6.773438 -17.84375 6.367188 -18 5.859375 -18 C 5.347656 -18 4.9375 -17.84375 4.625 -17.53125 C 4.320312 -17.226562 4.171875 -16.703125 4.171875 -15.953125 Z M 4.171875 -4.765625 "/></g></g></g><g fill="#2a383f" fill-opacity="1"><g transform="translate(665.799818, 186.047723)"><g><path d="M 4.296875 -20.734375 L 4.296875 -4.734375 C 4.296875 -3.984375 4.445312 -3.457031 4.75 -3.15625 C 5.0625 -2.863281 5.472656 -2.71875 5.984375 -2.71875 C 6.492188 -2.71875 6.898438 -2.863281 7.203125 -3.15625 C 7.515625 -3.457031 7.671875 -3.984375 7.671875 -4.734375 L 7.671875 -20.734375 L 10.75 -20.734375 L 10.75 -4.9375 C 10.75 -3.257812 10.335938 -1.972656 9.515625 -1.078125 C 8.703125 -0.179688 7.492188 0.265625 5.890625 0.265625 C 4.296875 0.265625 3.085938 -0.179688 2.265625 -1.078125 C 1.441406 -1.972656 1.03125 -3.257812 1.03125 -4.9375 L 1.03125 -20.734375 Z M 4.296875 -20.734375 "/></g></g></g><g fill="#2a383f" fill-opacity="1"><g transform="translate(680.542668, 186.047723)"><g><path d="M 4.4375 -11.984375 L 8.90625 -11.984375 L 8.90625 -9.03125 L 4.4375 -9.03125 L 4.4375 -2.96875 L 10.0625 -2.96875 L 10.0625 0 L 1.1875 0 L 1.1875 -20.734375 L 10.0625 -20.734375 L 10.0625 -17.765625 L 4.4375 -17.765625 Z M 4.4375 -11.984375 "/></g></g></g><g fill="#2a383f" fill-opacity="1"><g transform="translate(694.397434, 186.047723)"><g/></g></g><g fill="#2a383f" fill-opacity="1"><g transform="translate(701.9471, 186.047723)"><g><path d="M 1.1875 -20.734375 L 6.34375 -20.734375 C 7.976562 -20.734375 9.191406 -20.296875 9.984375 -19.421875 C 10.785156 -18.554688 11.1875 -17.285156 11.1875 -15.609375 L 11.1875 -5.125 C 11.1875 -3.445312 10.785156 -2.171875 9.984375 -1.296875 C 9.191406 -0.429688 7.976562 0 6.34375 0 L 1.1875 0 Z M 4.4375 -17.765625 L 4.4375 -2.96875 L 6.28125 -2.96875 C 6.789062 -2.96875 7.191406 -3.113281 7.484375 -3.40625 C 7.785156 -3.695312 7.9375 -4.21875 7.9375 -4.96875 L 7.9375 -15.75 C 7.9375 -16.5 7.785156 -17.019531 7.484375 -17.3125 C 7.191406 -17.613281 6.789062 -17.765625 6.28125 -17.765625 Z M 4.4375 -17.765625 "/></g></g></g><g fill="#2a383f" fill-opacity="1"><g transform="translate(716.985963, 186.047723)"><g><path d="M 4.4375 -11.984375 L 8.90625 -11.984375 L 8.90625 -9.03125 L 4.4375 -9.03125 L 4.4375 -2.96875 L 10.0625 -2.96875 L 10.0625 0 L 1.1875 0 L 1.1875 -20.734375 L 10.0625 -20.734375 L 10.0625 -17.765625 L 4.4375 -17.765625 Z M 4.4375 -11.984375 "/></g></g></g><g fill="#2a383f" fill-opacity="1"><g transform="translate(730.840729, 186.047723)"><g><path d="M 0.765625 -15.75 C 0.765625 -17.425781 1.164062 -18.710938 1.96875 -19.609375 C 2.769531 -20.515625 3.96875 -20.96875 5.5625 -20.96875 C 7.164062 -20.96875 8.363281 -20.515625 9.15625 -19.609375 C 9.957031 -18.710938 10.359375 -17.425781 10.359375 -15.75 L 10.359375 -14.953125 L 7.28125 -14.953125 L 7.28125 -15.953125 C 7.28125 -16.703125 7.132812 -17.226562 6.84375 -17.53125 C 6.5625 -17.84375 6.164062 -18 5.65625 -18 C 5.144531 -18 4.742188 -17.84375 4.453125 -17.53125 C 4.171875 -17.226562 4.03125 -16.703125 4.03125 -15.953125 C 4.03125 -15.242188 4.1875 -14.617188 4.5 -14.078125 C 4.8125 -13.535156 5.203125 -13.019531 5.671875 -12.53125 C 6.148438 -12.050781 6.660156 -11.566406 7.203125 -11.078125 C 7.753906 -10.597656 8.265625 -10.070312 8.734375 -9.5 C 9.210938 -8.925781 9.609375 -8.273438 9.921875 -7.546875 C 10.234375 -6.816406 10.390625 -5.957031 10.390625 -4.96875 C 10.390625 -3.289062 9.976562 -2.003906 9.15625 -1.109375 C 8.34375 -0.210938 7.132812 0.234375 5.53125 0.234375 C 3.9375 0.234375 2.726562 -0.210938 1.90625 -1.109375 C 1.09375 -2.003906 0.6875 -3.289062 0.6875 -4.96875 L 0.6875 -6.390625 L 3.765625 -6.390625 L 3.765625 -4.765625 C 3.765625 -4.015625 3.914062 -3.488281 4.21875 -3.1875 C 4.519531 -2.894531 4.929688 -2.75 5.453125 -2.75 C 5.960938 -2.75 6.367188 -2.894531 6.671875 -3.1875 C 6.984375 -3.488281 7.140625 -4.015625 7.140625 -4.765625 C 7.140625 -5.472656 6.976562 -6.097656 6.65625 -6.640625 C 6.34375 -7.191406 5.945312 -7.707031 5.46875 -8.1875 C 5 -8.664062 4.492188 -9.144531 3.953125 -9.625 C 3.410156 -10.113281 2.898438 -10.644531 2.421875 -11.21875 C 1.953125 -11.789062 1.554688 -12.441406 1.234375 -13.171875 C 0.921875 -13.898438 0.765625 -14.757812 0.765625 -15.75 Z M 0.765625 -15.75 "/></g></g></g><g fill="#2a383f" fill-opacity="1"><g transform="translate(744.873152, 186.047723)"><g/></g></g><g fill="#2a383f" fill-opacity="1"><g transform="translate(752.422773, 186.047723)"><g><path d="M 1.1875 -20.734375 L 4.4375 -20.734375 L 4.4375 -2.96875 L 9.796875 -2.96875 L 9.796875 0 L 1.1875 0 Z M 1.1875 -20.734375 "/></g></g></g><g fill="#2a383f" fill-opacity="1"><g transform="translate(765.47833, 186.047723)"><g><path d="M 4.171875 -4.765625 C 4.171875 -4.015625 4.320312 -3.484375 4.625 -3.171875 C 4.9375 -2.867188 5.347656 -2.71875 5.859375 -2.71875 C 6.367188 -2.71875 6.773438 -2.867188 7.078125 -3.171875 C 7.390625 -3.484375 7.546875 -4.015625 7.546875 -4.765625 L 7.546875 -15.953125 C 7.546875 -16.703125 7.390625 -17.226562 7.078125 -17.53125 C 6.773438 -17.84375 6.367188 -18 5.859375 -18 C 5.347656 -18 4.9375 -17.84375 4.625 -17.53125 C 4.320312 -17.226562 4.171875 -16.703125 4.171875 -15.953125 Z M 0.921875 -15.75 C 0.921875 -17.425781 1.34375 -18.710938 2.1875 -19.609375 C 3.039062 -20.515625 4.265625 -20.96875 5.859375 -20.96875 C 7.460938 -20.96875 8.6875 -20.515625 9.53125 -19.609375 C 10.382812 -18.710938 10.8125 -17.425781 10.8125 -15.75 L 10.8125 -4.96875 C 10.8125 -3.289062 10.382812 -2.003906 9.53125 -1.109375 C 8.6875 -0.210938 7.460938 0.234375 5.859375 0.234375 C 4.265625 0.234375 3.039062 -0.210938 2.1875 -1.109375 C 1.34375 -2.003906 0.921875 -3.289062 0.921875 -4.96875 Z M 0.921875 -15.75 "/></g></g></g><g fill="#2a383f" fill-opacity="1"><g transform="translate(780.161968, 186.047723)"><g><path d="M 1.1875 -20.734375 L 4.4375 -20.734375 L 4.4375 0 L 1.1875 0 Z M 1.1875 -20.734375 "/></g></g></g><g fill="#2a383f" fill-opacity="1"><g transform="translate(788.747691, 186.047723)"><g><path d="M 0.765625 -15.75 C 0.765625 -17.425781 1.164062 -18.710938 1.96875 -19.609375 C 2.769531 -20.515625 3.96875 -20.96875 5.5625 -20.96875 C 7.164062 -20.96875 8.363281 -20.515625 9.15625 -19.609375 C 9.957031 -18.710938 10.359375 -17.425781 10.359375 -15.75 L 10.359375 -14.953125 L 7.28125 -14.953125 L 7.28125 -15.953125 C 7.28125 -16.703125 7.132812 -17.226562 6.84375 -17.53125 C 6.5625 -17.84375 6.164062 -18 5.65625 -18 C 5.144531 -18 4.742188 -17.84375 4.453125 -17.53125 C 4.171875 -17.226562 4.03125 -16.703125 4.03125 -15.953125 C 4.03125 -15.242188 4.1875 -14.617188 4.5 -14.078125 C 4.8125 -13.535156 5.203125 -13.019531 5.671875 -12.53125 C 6.148438 -12.050781 6.660156 -11.566406 7.203125 -11.078125 C 7.753906 -10.597656 8.265625 -10.070312 8.734375 -9.5 C 9.210938 -8.925781 9.609375 -8.273438 9.921875 -7.546875 C 10.234375 -6.816406 10.390625 -5.957031 10.390625 -4.96875 C 10.390625 -3.289062 9.976562 -2.003906 9.15625 -1.109375 C 8.34375 -0.210938 7.132812 0.234375 5.53125 0.234375 C 3.9375 0.234375 2.726562 -0.210938 1.90625 -1.109375 C 1.09375 -2.003906 0.6875 -3.289062 0.6875 -4.96875 L 0.6875 -6.390625 L 3.765625 -6.390625 L 3.765625 -4.765625 C 3.765625 -4.015625 3.914062 -3.488281 4.21875 -3.1875 C 4.519531 -2.894531 4.929688 -2.75 5.453125 -2.75 C 5.960938 -2.75 6.367188 -2.894531 6.671875 -3.1875 C 6.984375 -3.488281 7.140625 -4.015625 7.140625 -4.765625 C 7.140625 -5.472656 6.976562 -6.097656 6.65625 -6.640625 C 6.34375 -7.191406 5.945312 -7.707031 5.46875 -8.1875 C 5 -8.664062 4.492188 -9.144531 3.953125 -9.625 C 3.410156 -10.113281 2.898438 -10.644531 2.421875 -11.21875 C 1.953125 -11.789062 1.554688 -12.441406 1.234375 -13.171875 C 0.921875 -13.898438 0.765625 -14.757812 0.765625 -15.75 Z M 0.765625 -15.75 "/></g></g></g><g fill="#2a383f" fill-opacity="1"><g transform="translate(802.780069, 186.047723)"><g><path d="M 1.1875 -20.734375 L 4.4375 -20.734375 L 4.4375 0 L 1.1875 0 Z M 1.1875 -20.734375 "/></g></g></g><g fill="#2a383f" fill-opacity="1"><g transform="translate(811.365793, 186.047723)"><g><path d="M 8 0 C 7.957031 -0.132812 7.914062 -0.257812 7.875 -0.375 C 7.832031 -0.5 7.796875 -0.648438 7.765625 -0.828125 C 7.742188 -1.003906 7.726562 -1.226562 7.71875 -1.5 C 7.707031 -1.78125 7.703125 -2.128906 7.703125 -2.546875 L 7.703125 -5.796875 C 7.703125 -6.765625 7.53125 -7.445312 7.1875 -7.84375 C 6.851562 -8.238281 6.3125 -8.4375 5.5625 -8.4375 L 4.4375 -8.4375 L 4.4375 0 L 1.1875 0 L 1.1875 -20.734375 L 6.09375 -20.734375 C 7.789062 -20.734375 9.019531 -20.335938 9.78125 -19.546875 C 10.539062 -18.753906 10.921875 -17.554688 10.921875 -15.953125 L 10.921875 -14.328125 C 10.921875 -12.203125 10.210938 -10.800781 8.796875 -10.125 C 9.617188 -9.789062 10.179688 -9.242188 10.484375 -8.484375 C 10.796875 -7.722656 10.953125 -6.800781 10.953125 -5.71875 L 10.953125 -2.515625 C 10.953125 -2.003906 10.972656 -1.554688 11.015625 -1.171875 C 11.054688 -0.785156 11.15625 -0.394531 11.3125 0 Z M 4.4375 -17.765625 L 4.4375 -11.40625 L 5.71875 -11.40625 C 6.320312 -11.40625 6.796875 -11.5625 7.140625 -11.875 C 7.492188 -12.1875 7.671875 -12.757812 7.671875 -13.59375 L 7.671875 -15.640625 C 7.671875 -16.390625 7.535156 -16.929688 7.265625 -17.265625 C 7.003906 -17.597656 6.585938 -17.765625 6.015625 -17.765625 Z M 4.4375 -17.765625 "/></g></g></g><g fill="#2a383f" fill-opacity="1"><g transform="translate(826.227043, 186.047723)"><g><path d="M 0.765625 -15.75 C 0.765625 -17.425781 1.164062 -18.710938 1.96875 -19.609375 C 2.769531 -20.515625 3.96875 -20.96875 5.5625 -20.96875 C 7.164062 -20.96875 8.363281 -20.515625 9.15625 -19.609375 C 9.957031 -18.710938 10.359375 -17.425781 10.359375 -15.75 L 10.359375 -14.953125 L 7.28125 -14.953125 L 7.28125 -15.953125 C 7.28125 -16.703125 7.132812 -17.226562 6.84375 -17.53125 C 6.5625 -17.84375 6.164062 -18 5.65625 -18 C 5.144531 -18 4.742188 -17.84375 4.453125 -17.53125 C 4.171875 -17.226562 4.03125 -16.703125 4.03125 -15.953125 C 4.03125 -15.242188 4.1875 -14.617188 4.5 -14.078125 C 4.8125 -13.535156 5.203125 -13.019531 5.671875 -12.53125 C 6.148438 -12.050781 6.660156 -11.566406 7.203125 -11.078125 C 7.753906 -10.597656 8.265625 -10.070312 8.734375 -9.5 C 9.210938 -8.925781 9.609375 -8.273438 9.921875 -7.546875 C 10.234375 -6.816406 10.390625 -5.957031 10.390625 -4.96875 C 10.390625 -3.289062 9.976562 -2.003906 9.15625 -1.109375 C 8.34375 -0.210938 7.132812 0.234375 5.53125 0.234375 C 3.9375 0.234375 2.726562 -0.210938 1.90625 -1.109375 C 1.09375 -2.003906 0.6875 -3.289062 0.6875 -4.96875 L 0.6875 -6.390625 L 3.765625 -6.390625 L 3.765625 -4.765625 C 3.765625 -4.015625 3.914062 -3.488281 4.21875 -3.1875 C 4.519531 -2.894531 4.929688 -2.75 5.453125 -2.75 C 5.960938 -2.75 6.367188 -2.894531 6.671875 -3.1875 C 6.984375 -3.488281 7.140625 -4.015625 7.140625 -4.765625 C 7.140625 -5.472656 6.976562 -6.097656 6.65625 -6.640625 C 6.34375 -7.191406 5.945312 -7.707031 5.46875 -8.1875 C 5 -8.664062 4.492188 -9.144531 3.953125 -9.625 C 3.410156 -10.113281 2.898438 -10.644531 2.421875 -11.21875 C 1.953125 -11.789062 1.554688 -12.441406 1.234375 -13.171875 C 0.921875 -13.898438 0.765625 -14.757812 0.765625 -15.75 Z M 0.765625 -15.75 "/></g></g></g></svg>