<svg xmlns="http://www.w3.org/2000/svg" xmlns:xlink="http://www.w3.org/1999/xlink"  zoomAndPan="magnify" viewBox="50 63 790 94"  preserveAspectRatio="xMidYMid meet" version="1.0"><defs><g/></defs><g fill="#de7356" fill-opacity="1"><g transform="translate(51.885336, 134.267101)"><g><path d="M 3.0625 10.40625 L 15.03125 4.546875 C 17.226562 8.171875 21.050781 9.984375 26.5 9.984375 C 29.039062 9.984375 31.394531 9.171875 33.5625 7.546875 C 35.738281 5.929688 36.828125 3.441406 36.828125 0.078125 L 36.828125 -3.0625 C 34.242188 -0.195312 29.617188 1.234375 22.953125 1.234375 C 16.847656 1.234375 11.8125 -0.921875 7.84375 -5.234375 C 3.882812 -9.554688 1.90625 -14.851562 1.90625 -21.125 C 1.90625 -27.40625 3.882812 -32.71875 7.84375 -37.0625 C 11.8125 -41.414062 16.847656 -43.59375 22.953125 -43.59375 C 28.398438 -43.59375 32.941406 -41.914062 36.578125 -38.5625 L 36.828125 -38.5625 L 36.828125 -42.359375 L 51.453125 -42.359375 L 51.453125 1.15625 C 51.453125 8.039062 49.164062 13.351562 44.59375 17.09375 C 40.019531 20.832031 33.988281 22.703125 26.5 22.703125 C 14.394531 22.703125 6.582031 18.601562 3.0625 10.40625 Z M 20.265625 -28.3125 C 18.367188 -26.445312 17.421875 -24.054688 17.421875 -21.140625 C 17.421875 -18.222656 18.328125 -15.84375 20.140625 -14 C 21.960938 -12.15625 24.359375 -11.234375 27.328125 -11.234375 C 30.191406 -11.234375 32.546875 -12.164062 34.390625 -14.03125 C 36.234375 -15.90625 37.15625 -18.273438 37.15625 -21.140625 C 37.15625 -24.054688 36.207031 -26.445312 34.3125 -28.3125 C 32.414062 -30.1875 30.085938 -31.125 27.328125 -31.125 C 24.523438 -31.125 22.171875 -30.1875 20.265625 -28.3125 Z M 20.265625 -28.3125 "/></g></g></g><g fill="#de7356" fill-opacity="1"><g transform="translate(101.261644, 134.267101)"><g><path d="M 4.953125 0 L 4.953125 -42.359375 L 19.578125 -42.359375 L 19.578125 -36.25 L 19.734375 -36.25 C 19.847656 -36.46875 20.023438 -36.742188 20.265625 -37.078125 C 20.515625 -37.410156 21.050781 -37.988281 21.875 -38.8125 C 22.707031 -39.632812 23.585938 -40.375 24.515625 -41.03125 C 25.453125 -41.695312 26.664062 -42.289062 28.15625 -42.8125 C 29.644531 -43.332031 31.160156 -43.59375 32.703125 -43.59375 C 34.296875 -43.59375 35.863281 -43.375 37.40625 -42.9375 C 38.945312 -42.5 40.078125 -42.0625 40.796875 -41.625 L 41.953125 -40.953125 L 35.84375 -28.578125 C 34.019531 -30.117188 31.484375 -30.890625 28.234375 -30.890625 C 26.472656 -30.890625 24.957031 -30.503906 23.6875 -29.734375 C 22.425781 -28.960938 21.535156 -28.023438 21.015625 -26.921875 C 20.492188 -25.816406 20.125 -24.878906 19.90625 -24.109375 C 19.6875 -23.335938 19.578125 -22.734375 19.578125 -22.296875 L 19.578125 0 Z M 4.953125 0 "/></g></g></g><g fill="#de7356" fill-opacity="1"><g transform="translate(135.362425, 134.267101)"><g><path d="M 8.953125 -5.03125 C 4.253906 -9.21875 1.90625 -14.585938 1.90625 -21.140625 C 1.90625 -27.691406 4.351562 -33.070312 9.25 -37.28125 C 14.144531 -41.488281 20.203125 -43.59375 27.421875 -43.59375 C 34.515625 -43.59375 40.5 -41.472656 45.375 -37.234375 C 50.25 -33.003906 52.6875 -27.640625 52.6875 -21.140625 C 52.6875 -14.640625 50.304688 -9.285156 45.546875 -5.078125 C 40.785156 -0.867188 34.742188 1.234375 27.421875 1.234375 C 19.816406 1.234375 13.660156 -0.851562 8.953125 -5.03125 Z M 20.265625 -28.3125 C 18.367188 -26.445312 17.421875 -24.054688 17.421875 -21.140625 C 17.421875 -18.222656 18.328125 -15.84375 20.140625 -14 C 21.960938 -12.15625 24.359375 -11.234375 27.328125 -11.234375 C 30.191406 -11.234375 32.546875 -12.164062 34.390625 -14.03125 C 36.234375 -15.90625 37.15625 -18.273438 37.15625 -21.140625 C 37.15625 -24.054688 36.207031 -26.445312 34.3125 -28.3125 C 32.414062 -30.1875 30.085938 -31.125 27.328125 -31.125 C 24.523438 -31.125 22.171875 -30.1875 20.265625 -28.3125 Z M 20.265625 -28.3125 "/></g></g></g><g fill="#de7356" fill-opacity="1"><g transform="translate(182.922179, 134.267101)"><g><path d="M 18.75 -42.359375 L 18.75 -22.21875 C 18.75 -18.03125 19.378906 -15.054688 20.640625 -13.296875 C 21.910156 -11.535156 24.054688 -10.65625 27.078125 -10.65625 C 30.109375 -10.65625 32.253906 -11.535156 33.515625 -13.296875 C 34.785156 -15.054688 35.421875 -18.03125 35.421875 -22.21875 L 35.421875 -42.359375 L 50.046875 -42.359375 L 50.046875 -18.65625 C 50.046875 -11.613281 48.210938 -6.535156 44.546875 -3.421875 C 40.890625 -0.316406 35.066406 1.234375 27.078125 1.234375 C 19.097656 1.234375 13.273438 -0.316406 9.609375 -3.421875 C 5.953125 -6.535156 4.125 -11.613281 4.125 -18.65625 L 4.125 -42.359375 Z M 18.75 -42.359375 "/></g></g></g><g fill="#de7356" fill-opacity="1"><g transform="translate(230.069087, 134.267101)"><g><path d="M 48.546875 -37.109375 C 52.515625 -32.796875 54.5 -27.5 54.5 -21.21875 C 54.5 -14.945312 52.515625 -9.632812 48.546875 -5.28125 C 44.585938 -0.9375 39.550781 1.234375 33.4375 1.234375 C 27.820312 1.234375 23.203125 -0.523438 19.578125 -4.046875 L 19.578125 21.46875 L 4.953125 21.46875 L 4.953125 -42.359375 L 19.40625 -42.359375 L 19.40625 -37.578125 L 19.578125 -37.578125 C 23.203125 -41.585938 27.820312 -43.59375 33.4375 -43.59375 C 39.550781 -43.59375 44.585938 -41.429688 48.546875 -37.109375 Z M 36.125 -14.03125 C 38.03125 -15.90625 38.984375 -18.300781 38.984375 -21.21875 C 38.984375 -24.132812 38.070312 -26.515625 36.25 -28.359375 C 34.4375 -30.203125 32.039062 -31.125 29.0625 -31.125 C 26.207031 -31.125 23.851562 -30.1875 22 -28.3125 C 20.15625 -26.445312 19.234375 -24.082031 19.234375 -21.21875 C 19.234375 -18.300781 20.179688 -15.90625 22.078125 -14.03125 C 23.984375 -12.164062 26.3125 -11.234375 29.0625 -11.234375 C 31.875 -11.234375 34.226562 -12.164062 36.125 -14.03125 Z M 36.125 -14.03125 "/></g></g></g><g fill="#de7356" fill-opacity="1"><g transform="translate(279.445406, 134.267101)"><g><path d="M 47.8125 -19.15625 L 17.09375 -19.15625 C 17.09375 -16.1875 18.054688 -13.984375 19.984375 -12.546875 C 21.910156 -11.117188 24.003906 -10.40625 26.265625 -10.40625 C 28.628906 -10.40625 30.5 -10.71875 31.875 -11.34375 C 33.25 -11.976562 34.816406 -13.234375 36.578125 -15.109375 L 47.15625 -9.828125 C 42.75 -2.453125 35.425781 1.234375 25.1875 1.234375 C 18.800781 1.234375 13.320312 -0.953125 8.75 -5.328125 C 4.1875 -9.703125 1.90625 -14.972656 1.90625 -21.140625 C 1.90625 -27.304688 4.1875 -32.585938 8.75 -36.984375 C 13.320312 -41.390625 18.800781 -43.59375 25.1875 -43.59375 C 31.90625 -43.59375 37.367188 -41.648438 41.578125 -37.765625 C 45.785156 -33.890625 47.890625 -28.347656 47.890625 -21.140625 C 47.890625 -20.148438 47.863281 -19.488281 47.8125 -19.15625 Z M 17.5 -27.25 L 33.609375 -27.25 C 33.273438 -29.445312 32.40625 -31.140625 31 -32.328125 C 29.601562 -33.515625 27.800781 -34.109375 25.59375 -34.109375 C 23.175781 -34.109375 21.25 -33.472656 19.8125 -32.203125 C 18.382812 -30.941406 17.613281 -29.289062 17.5 -27.25 Z M 17.5 -27.25 "/></g></g></g><g fill="#de7356" fill-opacity="1"><g transform="translate(322.216071, 134.267101)"><g/></g></g><g fill="#de7356" fill-opacity="1"><g transform="translate(337.738538, 134.267101)"><g><path d="M 47.8125 -19.15625 L 17.09375 -19.15625 C 17.09375 -16.1875 18.054688 -13.984375 19.984375 -12.546875 C 21.910156 -11.117188 24.003906 -10.40625 26.265625 -10.40625 C 28.628906 -10.40625 30.5 -10.71875 31.875 -11.34375 C 33.25 -11.976562 34.816406 -13.234375 36.578125 -15.109375 L 47.15625 -9.828125 C 42.75 -2.453125 35.425781 1.234375 25.1875 1.234375 C 18.800781 1.234375 13.320312 -0.953125 8.75 -5.328125 C 4.1875 -9.703125 1.90625 -14.972656 1.90625 -21.140625 C 1.90625 -27.304688 4.1875 -32.585938 8.75 -36.984375 C 13.320312 -41.390625 18.800781 -43.59375 25.1875 -43.59375 C 31.90625 -43.59375 37.367188 -41.648438 41.578125 -37.765625 C 45.785156 -33.890625 47.890625 -28.347656 47.890625 -21.140625 C 47.890625 -20.148438 47.863281 -19.488281 47.8125 -19.15625 Z M 17.5 -27.25 L 33.609375 -27.25 C 33.273438 -29.445312 32.40625 -31.140625 31 -32.328125 C 29.601562 -33.515625 27.800781 -34.109375 25.59375 -34.109375 C 23.175781 -34.109375 21.25 -33.472656 19.8125 -32.203125 C 18.382812 -30.941406 17.613281 -29.289062 17.5 -27.25 Z M 17.5 -27.25 "/></g></g></g><g fill="#de7356" fill-opacity="1"><g transform="translate(380.509202, 134.267101)"><g><path d="M 7.4375 -42.359375 L 7.4375 -58.140625 L 22.046875 -58.140625 L 22.046875 -42.359375 L 30.96875 -42.359375 L 30.96875 -31.21875 L 22.046875 -31.21875 L 22.046875 -17.75 C 22.046875 -13.84375 23.144531 -11.890625 25.34375 -11.890625 C 25.894531 -11.890625 26.472656 -12 27.078125 -12.21875 C 27.691406 -12.4375 28.160156 -12.65625 28.484375 -12.875 L 28.984375 -13.21875 L 32.625 -1.40625 C 29.476562 0.351562 25.898438 1.234375 21.890625 1.234375 C 19.128906 1.234375 16.757812 0.753906 14.78125 -0.203125 C 12.800781 -1.171875 11.300781 -2.46875 10.28125 -4.09375 C 9.257812 -5.71875 8.53125 -7.421875 8.09375 -9.203125 C 7.65625 -10.992188 7.4375 -12.910156 7.4375 -14.953125 L 7.4375 -31.21875 L 1.328125 -31.21875 L 1.328125 -42.359375 Z M 7.4375 -42.359375 "/></g></g></g><g fill="#de7356" fill-opacity="1"><g transform="translate(406.105239, 134.267101)"><g/></g></g><g fill="#de7356" fill-opacity="1"><g transform="translate(421.627707, 134.267101)"><g><path d="M 7.84375 -5.234375 C 3.882812 -9.554688 1.90625 -14.851562 1.90625 -21.125 C 1.90625 -27.40625 3.882812 -32.71875 7.84375 -37.0625 C 11.8125 -41.414062 16.847656 -43.59375 22.953125 -43.59375 C 28.566406 -43.59375 33.191406 -41.832031 36.828125 -38.3125 L 36.828125 -71.015625 L 51.453125 -71.015625 L 51.453125 0 L 37 0 L 37 -4.796875 L 36.828125 -4.796875 C 33.191406 -0.773438 28.566406 1.234375 22.953125 1.234375 C 16.847656 1.234375 11.8125 -0.921875 7.84375 -5.234375 Z M 20.265625 -28.3125 C 18.367188 -26.445312 17.421875 -24.054688 17.421875 -21.140625 C 17.421875 -18.222656 18.328125 -15.84375 20.140625 -14 C 21.960938 -12.15625 24.359375 -11.234375 27.328125 -11.234375 C 30.191406 -11.234375 32.546875 -12.164062 34.390625 -14.03125 C 36.234375 -15.90625 37.15625 -18.273438 37.15625 -21.140625 C 37.15625 -24.054688 36.207031 -26.445312 34.3125 -28.3125 C 32.414062 -30.1875 30.085938 -31.125 27.328125 -31.125 C 24.523438 -31.125 22.171875 -30.1875 20.265625 -28.3125 Z M 20.265625 -28.3125 "/></g></g></g><g fill="#de7356" fill-opacity="1"><g transform="translate(471.004015, 134.267101)"><g><path d="M 20.0625 -54.828125 L 36.828125 -69.359375 L 44.34375 -59.875 L 24.6875 -48.46875 Z M 47.8125 -19.15625 L 17.09375 -19.15625 C 17.09375 -16.1875 18.054688 -13.984375 19.984375 -12.546875 C 21.910156 -11.117188 24.003906 -10.40625 26.265625 -10.40625 C 28.628906 -10.40625 30.5 -10.71875 31.875 -11.34375 C 33.25 -11.976562 34.816406 -13.234375 36.578125 -15.109375 L 47.15625 -9.828125 C 42.75 -2.453125 35.425781 1.234375 25.1875 1.234375 C 18.800781 1.234375 13.320312 -0.953125 8.75 -5.328125 C 4.1875 -9.703125 1.90625 -14.972656 1.90625 -21.140625 C 1.90625 -27.304688 4.1875 -32.585938 8.75 -36.984375 C 13.320312 -41.390625 18.800781 -43.59375 25.1875 -43.59375 C 31.90625 -43.59375 37.367188 -41.648438 41.578125 -37.765625 C 45.785156 -33.890625 47.890625 -28.347656 47.890625 -21.140625 C 47.890625 -20.148438 47.863281 -19.488281 47.8125 -19.15625 Z M 17.5 -27.25 L 33.609375 -27.25 C 33.273438 -29.445312 32.40625 -31.140625 31 -32.328125 C 29.601562 -33.515625 27.800781 -34.109375 25.59375 -34.109375 C 23.175781 -34.109375 21.25 -33.472656 19.8125 -32.203125 C 18.382812 -30.941406 17.613281 -29.289062 17.5 -27.25 Z M 17.5 -27.25 "/></g></g></g><g fill="#de7356" fill-opacity="1"><g transform="translate(513.774702, 134.267101)"><g><path d="M 27.5 -31.625 C 24.75 -31.625 22.378906 -30.601562 20.390625 -28.5625 C 18.410156 -26.53125 17.421875 -24.082031 17.421875 -21.21875 C 17.421875 -18.300781 18.410156 -15.820312 20.390625 -13.78125 C 22.378906 -11.75 24.75 -10.734375 27.5 -10.734375 C 28.820312 -10.734375 30.070312 -10.894531 31.25 -11.21875 C 32.4375 -11.550781 33.304688 -11.882812 33.859375 -12.21875 L 34.59375 -12.71875 L 39.5625 -2.5625 C 39.175781 -2.28125 38.632812 -1.929688 37.9375 -1.515625 C 37.25 -1.109375 35.679688 -0.550781 33.234375 0.15625 C 30.785156 0.875 28.15625 1.234375 25.34375 1.234375 C 19.125 1.234375 13.660156 -0.953125 8.953125 -5.328125 C 4.253906 -9.703125 1.90625 -14.945312 1.90625 -21.0625 C 1.90625 -27.226562 4.253906 -32.523438 8.953125 -36.953125 C 13.660156 -41.378906 19.125 -43.59375 25.34375 -43.59375 C 28.15625 -43.59375 30.742188 -43.265625 33.109375 -42.609375 C 35.484375 -41.953125 37.164062 -41.289062 38.15625 -40.625 L 39.5625 -39.640625 L 34.59375 -29.640625 C 32.78125 -30.960938 30.414062 -31.625 27.5 -31.625 Z M 27.5 -31.625 "/></g></g></g><g fill="#de7356" fill-opacity="1"><g transform="translate(547.297466, 134.267101)"><g><path d="M 8.953125 -5.03125 C 4.253906 -9.21875 1.90625 -14.585938 1.90625 -21.140625 C 1.90625 -27.691406 4.351562 -33.070312 9.25 -37.28125 C 14.144531 -41.488281 20.203125 -43.59375 27.421875 -43.59375 C 34.515625 -43.59375 40.5 -41.472656 45.375 -37.234375 C 50.25 -33.003906 52.6875 -27.640625 52.6875 -21.140625 C 52.6875 -14.640625 50.304688 -9.285156 45.546875 -5.078125 C 40.785156 -0.867188 34.742188 1.234375 27.421875 1.234375 C 19.816406 1.234375 13.660156 -0.851562 8.953125 -5.03125 Z M 20.265625 -28.3125 C 18.367188 -26.445312 17.421875 -24.054688 17.421875 -21.140625 C 17.421875 -18.222656 18.328125 -15.84375 20.140625 -14 C 21.960938 -12.15625 24.359375 -11.234375 27.328125 -11.234375 C 30.191406 -11.234375 32.546875 -12.164062 34.390625 -14.03125 C 36.234375 -15.90625 37.15625 -18.273438 37.15625 -21.140625 C 37.15625 -24.054688 36.207031 -26.445312 34.3125 -28.3125 C 32.414062 -30.1875 30.085938 -31.125 27.328125 -31.125 C 24.523438 -31.125 22.171875 -30.1875 20.265625 -28.3125 Z M 20.265625 -28.3125 "/></g></g></g><g fill="#de7356" fill-opacity="1"><g transform="translate(594.85723, 134.267101)"><g><path d="M 18.75 -42.359375 L 18.75 -22.21875 C 18.75 -18.03125 19.378906 -15.054688 20.640625 -13.296875 C 21.910156 -11.535156 24.054688 -10.65625 27.078125 -10.65625 C 30.109375 -10.65625 32.253906 -11.535156 33.515625 -13.296875 C 34.785156 -15.054688 35.421875 -18.03125 35.421875 -22.21875 L 35.421875 -42.359375 L 50.046875 -42.359375 L 50.046875 -18.65625 C 50.046875 -11.613281 48.210938 -6.535156 44.546875 -3.421875 C 40.890625 -0.316406 35.066406 1.234375 27.078125 1.234375 C 19.097656 1.234375 13.273438 -0.316406 9.609375 -3.421875 C 5.953125 -6.535156 4.125 -11.613281 4.125 -18.65625 L 4.125 -42.359375 Z M 18.75 -42.359375 "/></g></g></g><g fill="#de7356" fill-opacity="1"><g transform="translate(642.004138, 134.267101)"><g><path d="M 15.6875 -42.359375 L 26.015625 -19.328125 L 36.328125 -42.359375 L 53.671875 -42.359375 L 30.96875 0 L 21.0625 0 L -1.65625 -42.359375 Z M 15.6875 -42.359375 "/></g></g></g><g fill="#de7356" fill-opacity="1"><g transform="translate(687.004226, 134.267101)"><g><path d="M 47.8125 -19.15625 L 17.09375 -19.15625 C 17.09375 -16.1875 18.054688 -13.984375 19.984375 -12.546875 C 21.910156 -11.117188 24.003906 -10.40625 26.265625 -10.40625 C 28.628906 -10.40625 30.5 -10.71875 31.875 -11.34375 C 33.25 -11.976562 34.816406 -13.234375 36.578125 -15.109375 L 47.15625 -9.828125 C 42.75 -2.453125 35.425781 1.234375 25.1875 1.234375 C 18.800781 1.234375 13.320312 -0.953125 8.75 -5.328125 C 4.1875 -9.703125 1.90625 -14.972656 1.90625 -21.140625 C 1.90625 -27.304688 4.1875 -32.585938 8.75 -36.984375 C 13.320312 -41.390625 18.800781 -43.59375 25.1875 -43.59375 C 31.90625 -43.59375 37.367188 -41.648438 41.578125 -37.765625 C 45.785156 -33.890625 47.890625 -28.347656 47.890625 -21.140625 C 47.890625 -20.148438 47.863281 -19.488281 47.8125 -19.15625 Z M 17.5 -27.25 L 33.609375 -27.25 C 33.273438 -29.445312 32.40625 -31.140625 31 -32.328125 C 29.601562 -33.515625 27.800781 -34.109375 25.59375 -34.109375 C 23.175781 -34.109375 21.25 -33.472656 19.8125 -32.203125 C 18.382812 -30.941406 17.613281 -29.289062 17.5 -27.25 Z M 17.5 -27.25 "/></g></g></g><g fill="#de7356" fill-opacity="1"><g transform="translate(729.774868, 134.267101)"><g><path d="M 4.953125 0 L 4.953125 -42.359375 L 19.578125 -42.359375 L 19.578125 -36.25 L 19.734375 -36.25 C 19.847656 -36.46875 20.023438 -36.742188 20.265625 -37.078125 C 20.515625 -37.410156 21.050781 -37.988281 21.875 -38.8125 C 22.707031 -39.632812 23.585938 -40.375 24.515625 -41.03125 C 25.453125 -41.695312 26.664062 -42.289062 28.15625 -42.8125 C 29.644531 -43.332031 31.160156 -43.59375 32.703125 -43.59375 C 34.296875 -43.59375 35.863281 -43.375 37.40625 -42.9375 C 38.945312 -42.5 40.078125 -42.0625 40.796875 -41.625 L 41.953125 -40.953125 L 35.84375 -28.578125 C 34.019531 -30.117188 31.484375 -30.890625 28.234375 -30.890625 C 26.472656 -30.890625 24.957031 -30.503906 23.6875 -29.734375 C 22.425781 -28.960938 21.535156 -28.023438 21.015625 -26.921875 C 20.492188 -25.816406 20.125 -24.878906 19.90625 -24.109375 C 19.6875 -23.335938 19.578125 -22.734375 19.578125 -22.296875 L 19.578125 0 Z M 4.953125 0 "/></g></g></g><g fill="#de7356" fill-opacity="1"><g transform="translate(763.875695, 134.267101)"><g><path d="M 7.4375 -42.359375 L 7.4375 -58.140625 L 22.046875 -58.140625 L 22.046875 -42.359375 L 30.96875 -42.359375 L 30.96875 -31.21875 L 22.046875 -31.21875 L 22.046875 -17.75 C 22.046875 -13.84375 23.144531 -11.890625 25.34375 -11.890625 C 25.894531 -11.890625 26.472656 -12 27.078125 -12.21875 C 27.691406 -12.4375 28.160156 -12.65625 28.484375 -12.875 L 28.984375 -13.21875 L 32.625 -1.40625 C 29.476562 0.351562 25.898438 1.234375 21.890625 1.234375 C 19.128906 1.234375 16.757812 0.753906 14.78125 -0.203125 C 12.800781 -1.171875 11.300781 -2.46875 10.28125 -4.09375 C 9.257812 -5.71875 8.53125 -7.421875 8.09375 -9.203125 C 7.65625 -10.992188 7.4375 -12.910156 7.4375 -14.953125 L 7.4375 -31.21875 L 1.328125 -31.21875 L 1.328125 -42.359375 Z M 7.4375 -42.359375 "/></g></g></g><g fill="#de7356" fill-opacity="1"><g transform="translate(789.471732, 134.267101)"><g><path d="M 47.8125 -19.15625 L 17.09375 -19.15625 C 17.09375 -16.1875 18.054688 -13.984375 19.984375 -12.546875 C 21.910156 -11.117188 24.003906 -10.40625 26.265625 -10.40625 C 28.628906 -10.40625 30.5 -10.71875 31.875 -11.34375 C 33.25 -11.976562 34.816406 -13.234375 36.578125 -15.109375 L 47.15625 -9.828125 C 42.75 -2.453125 35.425781 1.234375 25.1875 1.234375 C 18.800781 1.234375 13.320312 -0.953125 8.75 -5.328125 C 4.1875 -9.703125 1.90625 -14.972656 1.90625 -21.140625 C 1.90625 -27.304688 4.1875 -32.585938 8.75 -36.984375 C 13.320312 -41.390625 18.800781 -43.59375 25.1875 -43.59375 C 31.90625 -43.59375 37.367188 -41.648438 41.578125 -37.765625 C 45.785156 -33.890625 47.890625 -28.347656 47.890625 -21.140625 C 47.890625 -20.148438 47.863281 -19.488281 47.8125 -19.15625 Z M 17.5 -27.25 L 33.609375 -27.25 C 33.273438 -29.445312 32.40625 -31.140625 31 -32.328125 C 29.601562 -33.515625 27.800781 -34.109375 25.59375 -34.109375 C 23.175781 -34.109375 21.25 -33.472656 19.8125 -32.203125 C 18.382812 -30.941406 17.613281 -29.289062 17.5 -27.25 Z M 17.5 -27.25 "/></g></g></g></svg>